# xmcd
#
# Track frame offsets:
#	150
#	23676
#	51588
#	78694
#	120518
#	144132
#	166186
#	182765
#	202499
#	222856
#
# Disc length: 3239 seconds
#
# Revision: 0
# Processed by: cddbd v1.5.1PL0 Copyright (c) Steve Scherf et al.
# Submitted via: dBpowerAMP V4.0
#
DISCID=8e0ca50a
DTITLE=Damon Fowler Group - Live @ skipper's smokehouse
DYEAR=2003
DGENRE=Blues
TTITLE0=Jig is up
TTITLE1=T.V. Mama
TTITLE2=Ghetto Woman
TTITLE3=Rollin and tumblin
TTITLE4=Sweet marmalade
TTITLE5=riverview drive
TTITLE6=pocket full of blues
TTITLE7=hot tamales
TTITLE8=28 degrees
TTITLE9=brokedown engine
EXTD=
EXTT0=
EXTT1=
EXTT2=
EXTT3=
EXTT4=
EXTT5=
EXTT6=
EXTT7=
EXTT8=
EXTT9=
PLAYORDER=
